{"title":"Empty Nest Season 7 (1994 - 95) fiveofseven","uid":14224997,"size":4670508610,"categoryP":"video","categoryS":"tv_shows","magnet":"?xt=urn:btih:3b66205346b2402738d976837460c510d457cc6f&amp;dn=Empty+Nest+Season+7+%281994+-+95%29+fiveofseven&amp;tr=udp%3A%2F%2Ftracker.leechers-paradise.org%3A6969&amp;tr=udp%3A%2F%2Fzer0day.ch%3A1337&amp;tr=udp%3A%2F%2Fopen.demonii.com%3A1337&amp;tr=udp%3A%2F%2Ftracker.coppersurfer.tk%3A6969&amp;tr=udp%3A%2F%2Fexodus.desync.com%3A6969","seeders":3,"leechers":2,"uploader":"fiveofseven","files":48,"time":1460070882,"description":"To &quot;The Forgotten One&quot; on You-Tube, whoever you are...\r\nI comprehend you are re-encoding my work for your account,\r\nbut you could at least give me credit as the source.\r\nThis project is a lot of work, that goes beyond loading a file and clicking 'start'.\r\nThere's the recording of them, sometimes twice to three times,\r\ndue to local station ID and trips in the broadcast. Editing out commercials,\r\nusing at least 2 broadcasts for each episode, so it will look nice.\r\nThen there's the closed captions to srt conversion that is another bag of problems to get it right...\r\nI don't mind you using my encodes, I actually like that it's out there,\r\nbut you SHOULD at least mention the source for making it possible at all!\r\n  \nhttps://yuq.me/users/25/564/KDbECJhTtP.jpg \r\n  \nhttps://yuq.me/users/25/564/XmIEqAcxvH.png \r\n  \r\n\r\nPLOT - The show revolves around pediatrician Dr. Harry Weston (Richard Mulligan), \r\nwhose life is turned upside down when his wife, Libby, dies, and two of his three\r\nadult daughters move back into the family home in Miami. \r\n\r\nHarry and Laverne are now working for a struggling inner-city medical \r\nclinic run by the tough-talking Dr. Maxine Douglas (Marsha Warfield). \r\n\r\nCarol is the only daughter living at home now and Estelle Getty reprised her \r\nGolden Girls character Sophia Petrillo during Empty Nest's final two seasons.\r\nKristy McNichol returns as Barbara for the final episode.\r\n\r\n\r\nINFO (Based on 1st episode only)\r\n\r\nEncoder: fiveofseven\r\nSource: SDTV \r\n(Not HD, LAFF logo remains in screen &amp; usually 2 quick banners per episode)\r\n  https://yuq.me/users/25/564/HOEUzxSF7v.png \r\nRating: TV-PG\r\nGenre: Comedy, Family\r\nSubtitles: English\r\n\r\nGeneral\r\nComplete name                            : 01 Let's Give Them Something to Talk About - fiveofseven.mp4\r\nFormat                                   : MPEG-4\r\nFormat profile                           : Base Media\r\nCodec ID                                 : isom\r\nFile size                                : 186 MiB\r\nDuration                                 : 22mn 55s\r\nOverall bit rate mode                    : Variable\r\nOverall bit rate                         : 1 132 Kbps\r\nEncoded date                             : UTC 2016-01-06 02:34:52\r\nTagged date                              : UTC 2016-01-06 02:58:48\r\nWriting application                      : My MP4Box GUI 0.6.0.6 &lt;http://my-mp4box-gui.zymichost.com&gt;\r\n\r\nVideo\r\nID                                       : 1\r\nFormat                                   : AVC\r\nFormat/Info                              : Advanced Video Codec\r\nFormat profile                           :   \r\nFormat settings, CABAC                   : Yes\r\nFormat settings, ReFrames                : 7 frames\r\nCodec ID                                 : avc1\r\nCodec ID/Info                            : Advanced Video Coding\r\nDuration                                 : 22mn 55s\r\nBit rate                                 : 1 000 Kbps\r\nMaximum bit rate                         : 2 860 Kbps\r\nWidth                                    : 640 pixels\r\nHeight                                   : 472 pixels\r\nDisplay aspect ratio                     : 4:3\r\nFrame rate mode                          : Constant\r\nFrame rate                               : 29.970 fps\r\nColor space                              : YUV\r\nChroma subsampling                       : 4:2:0\r\nBit depth                                : 8 bits\r\nScan type                                : Progressive\r\nBits/(Pixel*Frame)                       : 0.110\r\nStream size                              : 164 MiB (88%)\r\nTitle                                    : en.mp4\r\nWriting library                          : x264 core 146 r2538 121396c\r\nLanguage                                 : English\r\nEncoded date                             : UTC 2016-01-05 23:57:21\r\nTagged date                              : UTC 2016-01-06 02:34:55\r\n\r\nAudio\r\nID                                       : 2\r\nFormat                                   : AAC\r\nFormat/Info                              : Advanced Audio Codec\r\nFormat profile                           : LC\r\nCodec ID                                 : 40\r\nDuration                                 : 22mn 55s\r\nBit rate mode                            : Variable\r\nBit rate                                 : 128 Kbps\r\nMaximum bit rate                         : 131 Kbps\r\nChannel count                            : 2 channels\r\nChannel positions                        : Front: L R\r\nSampling rate                            : 48.0 KHz\r\nCompression mode                         : Lossy\r\nDelay relative to video                  : 100ms\r\nStream size                              : 21.0 MiB (11%)\r\nTitle                                    : aac.mp4\r\nLanguage                                 : English\r\nEncoded date                             : UTC 2016-01-06 02:34:54\r\nTagged date                              : UTC 2016-01-06 02:34:55\r\n\r\n\r\nScreenshots - \r\n \r\r\n  \nhttps://yuq.me/users/25/564/WcZODgjVIS.png \r\n  \nhttps://yuq.me/users/25/564/dCVn0BilOh.png \r\n  \nhttps://yuq.me/users/25/564/ntyDNArxFS.png \r\n \r\nsignature \r\n  \nhttps://yuq.me/users/25/564/aegRQCBILx.png","torrent":{"xt":"urn:btih:3b66205346b2402738d976837460c510d457cc6f","amp;dn":"Empty+Nest+Season+7+%281994+-+95%29+fiveofseven","amp;tr":["udp%3A%2F%2Ftracker.leechers-paradise.org%3A6969","udp%3A%2F%2Fzer0day.ch%3A1337","udp%3A%2F%2Fopen.demonii.com%3A1337","udp%3A%2F%2Ftracker.coppersurfer.tk%3A6969","udp%3A%2F%2Fexodus.desync.com%3A6969"],"infoHash":"3b66205346b2402738d976837460c510d457cc6f","infoHashBuffer":{"type":"Buffer","data":[59,102,32,83,70,178,64,39,56,217,118,131,116,96,197,16,212,87,204,111]},"announce":[],"urlList":[]}}